<svg width="125" height="205" viewBox="0 0 125 205" fill="none" xmlns="http://www.w3.org/2000/svg">
<path d="M81.9299 140.594V156.246C81.7523 156.424 81.3425 156.745 80.5253 157.125C79.296 157.681 77.1289 158.354 73.4138 158.766C71.101 159.028 68.1758 159.201 64.5176 159.201C60.8617 159.201 57.9342 159.028 55.6214 158.766C51.9063 158.354 49.7414 157.681 48.5098 157.125C47.6926 156.745 47.2806 156.424 47.1053 156.246V140.594C45.4094 141.263 43.7704 141.875 42.1313 142.408V156.718C42.1313 158.09 42.8325 159.902 45.8783 161.396C44.6787 163.975 44.0344 166.843 44.0344 169.884C44.0344 181.209 64.5176 205 64.5176 205C64.5176 205 85.003 181.209 85.003 169.884C85.003 166.841 84.3588 163.972 83.1568 161.396C86.2027 159.905 86.9038 158.09 86.9038 156.718V142.408C85.2648 141.878 83.6281 141.263 81.9299 140.594ZM64.5176 196.222C64.5176 196.222 50.6474 178.694 50.6474 170.356C50.6474 167.808 51.2347 165.407 52.2591 163.301C54.0142 163.626 56.1199 163.859 58.5511 164.004C57.5563 165.288 56.9713 166.9 56.9713 168.657C56.9713 172.812 64.5199 181.592 64.5199 181.592C64.5199 181.592 72.0684 172.814 72.0684 168.657C72.0684 166.902 71.4857 165.291 70.4909 164.004C72.9198 163.861 75.0255 163.626 76.7852 163.301C77.8073 165.407 78.3946 167.806 78.3946 170.356C78.39 178.694 64.5176 196.222 64.5176 196.222Z" fill="#269384"/>
<path d="M121.933 54.0329C120.117 51.4241 116.194 48.2941 107.915 48.2941C101.946 48.2941 94.63 49.8739 86.6124 52.831C86.5237 50.9848 86.3757 48.9383 86.2027 46.7438C85.7041 40.7159 84.8846 33.6636 83.4505 26.873C80.5845 13.119 66.712 1.11999 66.127 0.594143C65.1914 -0.198048 63.846 -0.198048 62.9082 0.594143C62.3231 1.11772 48.4507 13.119 45.5847 26.873C44.1505 33.6613 43.331 40.7136 42.8348 46.7438C42.6595 48.9383 42.5115 50.9848 42.4273 52.831C34.4075 49.8739 27.0911 48.2941 21.1223 48.2941C12.8385 48.2941 8.9185 51.4241 7.1042 54.0329C5.84762 55.8153 5.14421 57.8368 4.96893 60.029C2.15984 61.5223 0.259033 64.4498 0.259033 67.8143C0.259033 72.6744 4.17902 76.5921 9.03688 76.5921C9.33053 76.5921 9.62419 76.5921 9.91557 76.5352C13.2528 82.2991 18.138 88.4181 23.9906 94.4734C9.18484 109.75 0.520819 125.551 7.10648 134.889C8.92078 137.495 12.8408 140.596 21.1246 140.623C32.2745 140.623 48.0477 135.094 64.5199 125.672C80.9965 135.096 96.7675 140.623 107.917 140.623C116.199 140.623 120.119 137.495 121.936 134.889C128.519 125.551 119.857 109.75 105.047 94.4734C119.855 79.169 128.517 63.3958 121.933 54.0329ZM107.915 54.149C111.102 54.149 115.261 54.7045 117.164 57.3974C120.968 62.8108 114.997 75.7453 100.924 90.3485C96.5899 86.1941 91.8504 82.1261 86.9061 78.263V62.1961C86.9061 62.0208 86.9061 60.8508 86.8469 58.9773C94.9213 55.8745 102.208 54.149 107.915 54.149ZM47.1053 62.1961C47.1053 62.1096 47.1053 56.3708 47.7199 48.5581C48.1593 42.3845 49.0084 34.9247 50.4721 27.8997C52.4617 18.3889 60.9186 9.37654 64.5176 5.89363C68.1189 9.37654 76.5734 18.3889 78.563 27.8997C80.029 34.9247 80.8759 42.3845 81.3175 48.5581C81.9321 56.3731 81.9321 62.1096 81.9321 62.1961V63.2501C80.0564 64.3906 75.4944 65.9408 64.5199 65.9408C53.518 65.9408 48.9811 64.3906 47.1099 63.2228V62.1961H47.1053ZM47.1053 66.0888C50.0328 67.3476 55.2685 68.4016 64.5153 68.4016C73.7644 68.4016 79.0024 67.3476 81.9276 66.0888V73.198C80.0518 74.3408 75.4899 75.8933 64.5153 75.8933C53.5134 75.8933 48.9765 74.3408 47.1053 73.1707V66.0888ZM15.2378 74.0175C16.8176 72.4377 17.8124 70.2432 17.8124 67.812C17.8124 63.6576 14.9146 60.1769 11.0242 59.2687C11.1995 58.563 11.4931 57.9506 11.8733 57.3952C13.7468 54.7022 17.9308 54.1467 21.1223 54.1467C26.7974 54.1467 34.0865 55.8722 42.1609 58.975C42.1336 60.8485 42.1336 62.0186 42.1336 62.1938V78.2608C37.1893 82.1216 32.4475 86.1895 28.1155 90.3462C22.495 84.5254 18.1653 78.9346 15.2378 74.0175ZM21.1201 134.768C17.9308 134.768 13.7445 134.181 11.871 131.522C8.06712 126.106 14.0359 113.172 28.0836 98.5413C34.494 104.685 41.8081 110.654 49.359 115.983C52.4617 118.178 55.594 120.254 58.7241 122.189C44.237 130.058 30.5421 134.768 21.1201 134.768ZM52.7258 111.212C44.8539 105.651 37.9769 99.9754 32.2107 94.4711C35.227 91.5755 38.5323 88.648 42.1313 85.7228V95.5273C43.7408 96.9296 45.4094 98.3046 47.1053 99.6818V76.0367C49.7983 77.1795 54.4194 78.172 62.2935 78.3199C62.2935 78.3199 62.2935 78.3199 62.3208 78.3199C63.0243 78.3495 63.755 78.3495 64.5153 78.3495C65.2756 78.3495 66.0064 78.3495 66.712 78.3199C66.7394 78.3199 66.7393 78.3199 66.7393 78.3199C74.6135 78.1743 79.2369 77.1795 81.9298 76.0367V96.727H82.0733C83.1295 96.727 84.122 96.8431 85.1191 97.0503C85.7041 96.5517 86.3188 96.0532 86.9038 95.5296V85.7251C90.5028 88.6503 93.7809 91.5755 96.7948 94.4438C93.7513 97.369 90.3844 100.356 86.7262 103.313C85.3786 102.434 83.8011 101.965 82.0733 101.965C77.2154 101.965 73.2977 105.887 73.2977 110.743C73.2977 111.535 73.4138 112.323 73.6209 113.056C70.607 115.134 67.5315 117.064 64.5176 118.883C60.5976 116.539 56.6162 113.966 52.7258 111.212ZM117.164 131.522C115.288 134.181 111.104 134.768 107.915 134.768C98.4908 134.768 84.7663 130.061 70.311 122.189C72.5351 120.814 74.7296 119.38 76.924 117.854C78.3582 118.911 80.1406 119.523 82.0733 119.523C86.9334 119.523 90.8511 115.603 90.8511 110.745C90.8511 109.75 90.6781 108.756 90.3548 107.879C94.07 104.863 97.6416 101.733 100.947 98.5413C114.997 113.174 120.968 126.106 117.164 131.522Z" fill="#269384"/>
</svg>
